<svg width="253" height="72" viewBox="0 0 253 72" fill="none" xmlns="http://www.w3.org/2000/svg">
<g clip-path="url(#clip0_701_2065)">
<rect x="0.289062" width="72" height="72" rx="36" fill="#F4F5F7"/>
<path d="M29.2891 25H26.2891C26.0238 25 25.7695 25.1054 25.582 25.2929C25.3944 25.4804 25.2891 25.7348 25.2891 26V46C25.2891 46.2652 25.3944 46.5196 25.582 46.7071C25.7695 46.8946 26.0238 47 26.2891 47H29.2891V25Z" fill="#D6B1FF"/>
<path d="M31.2891 47H41.2891V25H31.2891V47ZM36.2891 43C36.0238 43 35.7695 42.8946 35.582 42.7071C35.3944 42.5196 35.2891 42.2652 35.2891 42C35.2891 41.7348 35.3944 41.4804 35.582 41.2929C35.7695 41.1054 36.0238 41 36.2891 41C36.5543 41 36.8086 41.1054 36.9962 41.2929C37.1837 41.4804 37.2891 41.7348 37.2891 42C37.2891 42.2652 37.1837 42.5196 36.9962 42.7071C36.8086 42.8946 36.5543 43 36.2891 43ZM36.2891 29C36.5543 29 36.8086 29.1054 36.9962 29.2929C37.1837 29.4804 37.2891 29.7348 37.2891 30C37.2891 30.2652 37.1837 30.5196 36.9962 30.7071C36.8086 30.8946 36.5543 31 36.2891 31C36.0238 31 35.7695 30.8946 35.582 30.7071C35.3944 30.5196 35.2891 30.2652 35.2891 30C35.2891 29.7348 35.3944 29.4804 35.582 29.2929C35.7695 29.1054 36.0238 29 36.2891 29ZM36.2891 35C36.5543 35 36.8086 35.1054 36.9962 35.2929C37.1837 35.4804 37.2891 35.7348 37.2891 36C37.2891 36.2652 37.1837 36.5196 36.9962 36.7071C36.8086 36.8946 36.5543 37 36.2891 37C36.0238 37 35.7695 36.8946 35.582 36.7071C35.3944 36.5196 35.2891 36.2652 35.2891 36C35.2891 35.7348 35.3944 35.4804 35.582 35.2929C35.7695 35.1054 36.0238 35 36.2891 35Z" fill="#8C30F5"/>
<path d="M46.2891 25H43.2891V47H46.2891C46.5543 47 46.8086 46.8946 46.9962 46.7071C47.1837 46.5196 47.2891 46.2652 47.2891 46V26C47.2891 25.7348 47.1837 25.4804 46.9962 25.2929C46.8086 25.1054 46.5543 25 46.2891 25Z" fill="#2EC5CE"/>
<path d="M88.2891 12.8472C88.2891 12.8472 137.053 8.19867 172.314 14.4162C207.576 20.6338 250.782 36.4991 250.782 36.4991" stroke="white" stroke-width="2" stroke-linecap="round" stroke-dasharray="2 6"/>
</g>
<defs>
<clipPath id="clip0_701_2065">
<rect width="251.904" height="72" fill="white" transform="translate(0.289062)"/>
</clipPath>
</defs>
</svg>
