<svg width="93" height="94" viewBox="0 0 93 94" fill="none" xmlns="http://www.w3.org/2000/svg">
<g filter="url(#filter0_d_1486_18529)">
<rect x="4" y="0.5" width="85" height="85" rx="42.5" fill="white"/>
<path d="M44.533 41.8696C44.9342 42.0408 44.9444 42.6899 44.5458 42.8739C43.2322 43.4847 36.8612 46.0402 36.8612 55.3425L36.8203 57.0598L56.1786 57.093L56.1659 55.3604C56.1659 45.8792 49.7565 43.5256 48.4353 42.9097C48.0392 42.7257 48.0469 42.0766 48.4481 41.9054C49.7591 41.3431 56.0202 38.6726 56.0202 30.3057L56.1812 28.849L36.8203 28.8184L36.989 30.344C36.989 38.4502 43.2169 41.3048 44.533 41.8696Z" fill="url(#paint0_linear_1486_18529)"/>
<path d="M54.6373 54.5742C54.1645 52.3586 53.38 50.9198 51.3636 50.9198H47.2108L47.2083 42.1415C47.2083 39.8593 53.0631 39.1975 53.0631 35.9902L40.0425 35.9979C40.0425 39.0901 45.8564 39.9028 45.8564 42.1645L45.8641 50.9198H41.8058C39.7742 50.9198 38.982 52.3816 38.5245 54.6202L37.9648 57.2933L55.2302 57.3393L54.6373 54.5742Z" fill="url(#paint1_linear_1486_18529)"/>
<path opacity="0.2" d="M37.6764 29.5876L55.3225 29.6157L55.2535 30.2214C55.251 30.2495 55.2484 30.2776 55.2484 30.3057C55.2484 35.4347 52.7951 39.2016 48.1414 41.2C47.6814 41.3968 47.3799 41.8645 47.3722 42.3909C47.3645 42.9174 47.6533 43.3952 48.1082 43.6048C48.1772 43.638 48.259 43.6738 48.3535 43.7147C50.0964 44.489 55.3966 46.8478 55.3966 55.3655L55.4043 56.3238L37.6049 56.2931L37.6279 55.3604V55.3425C37.6279 51.7289 38.6245 48.7772 40.5949 46.5692C42.1665 44.8008 43.9426 43.9907 44.7016 43.6457C44.763 43.6176 44.8192 43.592 44.8703 43.569C45.3252 43.3569 45.614 42.8816 45.6063 42.3551C45.5986 41.8287 45.2971 41.3636 44.8371 41.1642C42.7083 40.2494 37.7556 37.3641 37.7556 30.344C37.7556 30.3159 37.7531 30.2878 37.7505 30.2597L37.6764 29.5876ZM36.8203 28.8184L36.989 30.344C36.989 38.4502 43.2169 41.3048 44.533 41.8696C44.9342 42.0408 44.9444 42.6899 44.5458 42.8739C43.2322 43.4847 36.8612 46.0402 36.8612 55.3425L36.8203 57.0598L56.1761 57.093L56.1633 55.3604C56.1633 45.8792 49.754 43.5256 48.4328 42.9097C48.0366 42.7257 48.0443 42.0766 48.4455 41.9054C49.7565 41.3431 56.0176 38.6726 56.0176 30.3057L56.1786 28.849L36.8203 28.8184Z" fill="#424242"/>
<path d="M36.5384 27.665H56.4616C57.3126 27.665 58 28.355 58 29.2035C58 30.0545 57.31 30.7419 56.4616 30.7419H36.5384C35.6874 30.7419 35 30.0519 35 29.2035C35 28.355 35.69 27.665 36.5384 27.665Z" fill="#795548"/>
<path opacity="0.2" d="M56.4616 28.4317C56.8883 28.4317 57.2333 28.7793 57.2333 29.2035C57.2333 29.6303 56.8858 29.9753 56.4616 29.9753H36.5384C36.1117 29.9753 35.7667 29.6277 35.7667 29.2035C35.7667 28.7793 36.1142 28.4317 36.5384 28.4317H56.4616ZM56.4616 27.665H36.5384C35.69 27.665 35 28.355 35 29.2035C35 30.0545 35.69 30.7419 36.5384 30.7419H56.4616C57.3126 30.7419 58 30.0519 58 29.2035C58 28.355 57.31 27.665 56.4616 27.665Z" fill="#424242"/>
<path opacity="0.2" d="M52.4855 36.5098C52.1712 37.6623 50.8218 38.4418 49.5083 39.1956C48.0618 40.0288 46.6972 40.8159 46.6972 42.155L46.6997 50.9333C46.6997 51.2144 46.9297 51.4317 47.2108 51.4317H51.3636C52.8816 51.4317 53.633 52.321 54.1364 54.6849L54.599 56.829L38.5961 56.7881L39.028 54.7232C39.5084 52.3619 40.2878 51.4317 41.8058 51.4317H45.8641C45.9995 51.4317 46.1298 51.3908 46.2244 51.2937C46.3215 51.1965 46.3752 51.0739 46.3752 50.9384L46.3675 42.1754C46.3675 40.844 45.0003 40.0288 43.5513 39.165C42.2684 38.3983 40.9472 37.6112 40.6277 36.5123L52.4855 36.5098ZM53.0631 35.9961L40.0425 36.0012C40.0425 39.0934 45.8564 39.9061 45.8564 42.1652L45.8641 50.9205H41.8058C39.7742 50.9205 38.982 52.3823 38.5245 54.621L37.9648 57.2941L55.2302 57.3452L54.6347 54.575C54.1645 52.3593 53.38 50.9205 51.3636 50.9205H47.2108L47.2083 42.1422C47.2083 39.8601 53.0631 39.2059 53.0631 35.9961Z" fill="#424242"/>
<path d="M36.495 55.3447H56.4999C57.3253 55.3447 57.9949 56.0143 57.9949 56.8397C57.9949 57.6652 57.3253 58.3347 56.4999 58.3347H36.495C35.6696 58.3347 35 57.6652 35 56.8397C35 56.0117 35.6696 55.3447 36.495 55.3447Z" fill="#795548"/>
<path opacity="0.2" d="M56.4999 56.1114C56.9011 56.1114 57.2282 56.4385 57.2282 56.8397C57.2282 57.241 56.9011 57.5681 56.4999 57.5681H36.495C36.0938 57.5681 35.7667 57.241 35.7667 56.8397C35.7667 56.4385 36.0938 56.1114 36.495 56.1114H56.4999ZM56.4999 55.3447H36.495C35.6696 55.3447 35 56.0143 35 56.8397C35 57.6652 35.6696 58.3347 36.495 58.3347H56.4999C57.3253 58.3347 57.9949 57.6652 57.9949 56.8397C57.9949 56.0143 57.3253 55.3447 56.4999 55.3447Z" fill="#424242"/>
</g>
<defs>
<filter id="filter0_d_1486_18529" x="0" y="0.5" width="93" height="93" filterUnits="userSpaceOnUse" color-interpolation-filters="sRGB">
<feFlood flood-opacity="0" result="BackgroundImageFix"/>
<feColorMatrix in="SourceAlpha" type="matrix" values="0 0 0 0 0 0 0 0 0 0 0 0 0 0 0 0 0 0 127 0" result="hardAlpha"/>
<feOffset dy="4"/>
<feGaussianBlur stdDeviation="2"/>
<feColorMatrix type="matrix" values="0 0 0 0 0 0 0 0 0 0 0 0 0 0 0 0 0 0 0.25 0"/>
<feBlend mode="normal" in2="BackgroundImageFix" result="effect1_dropShadow_1486_18529"/>
<feBlend mode="normal" in="SourceGraphic" in2="effect1_dropShadow_1486_18529" result="shape"/>
</filter>
<linearGradient id="paint0_linear_1486_18529" x1="51.4049" y1="55.1764" x2="42.0347" y2="31.8354" gradientUnits="userSpaceOnUse">
<stop offset="0.0021923" stop-color="#BBDEFB"/>
<stop offset="1" stop-color="#E3F2FD"/>
</linearGradient>
<linearGradient id="paint1_linear_1486_18529" x1="46.5988" y1="36.4382" x2="46.5988" y2="55.829" gradientUnits="userSpaceOnUse">
<stop stop-color="#FFCA7B"/>
<stop offset="0.2539" stop-color="#FFA726"/>
<stop offset="0.4688" stop-color="#FFCC80"/>
<stop offset="0.6586" stop-color="#FFC875"/>
<stop offset="0.8665" stop-color="#FFA726"/>
</linearGradient>
</defs>
</svg>
