<svg width="20" height="20" viewBox="0 0 20 20" fill="none" xmlns="http://www.w3.org/2000/svg">
<g id="Essential Icons / refresh">
<path id="Vector" d="M19.1783 11.6012C18.899 11.5141 18.5966 11.541 18.337 11.6761C18.0775 11.8111 17.8818 12.0434 17.7926 12.3223C17.2689 13.9247 16.2479 15.318 14.8781 16.2997C13.5084 17.2813 11.8614 17.7999 10.1767 17.7802C8.09298 17.8039 6.08489 16.9997 4.59279 15.544C3.10069 14.0883 2.24636 12.0999 2.21715 10.0149C2.24636 7.9298 3.10069 5.94141 4.59279 4.48573C6.08489 3.03005 8.09298 2.22589 10.1767 2.24959C12.0586 2.24504 13.8826 2.90055 15.3316 4.10217L12.926 3.70281C12.7818 3.67907 12.6344 3.68408 12.4921 3.71757C12.3499 3.75105 12.2157 3.81233 12.0972 3.8979C11.9787 3.98347 11.8783 4.09163 11.8018 4.21616C11.7252 4.3407 11.674 4.47914 11.6511 4.62355C11.6274 4.76782 11.6324 4.91536 11.6659 5.05769C11.6993 5.20001 11.7606 5.33431 11.8461 5.45287C11.9316 5.57143 12.0397 5.6719 12.1641 5.74851C12.2886 5.82512 12.4269 5.87636 12.5712 5.89927L17.2716 6.6758H17.46C17.5886 6.67565 17.7161 6.65313 17.837 6.60924C17.8776 6.59382 17.9151 6.57128 17.9478 6.54268C18.0273 6.51311 18.102 6.47199 18.1695 6.42066L18.2693 6.29863C18.2693 6.24316 18.3691 6.19879 18.4134 6.13223C18.4578 6.06567 18.4134 6.0213 18.4688 5.97693C18.4995 5.91232 18.5254 5.84559 18.5464 5.77725L19.3779 1.33994C19.4055 1.19426 19.4042 1.04456 19.3741 0.899379C19.3439 0.754197 19.2855 0.616381 19.2021 0.493798C19.1187 0.371216 19.012 0.266268 18.8881 0.184947C18.7642 0.103626 18.6255 0.0475248 18.4799 0.0198458C18.3343 -0.00783313 18.1847 -0.00654754 18.0397 0.0236293C17.8946 0.0538061 17.7569 0.112283 17.6344 0.195722C17.387 0.364233 17.2166 0.624188 17.1607 0.9184L16.8614 2.52692C15.0056 0.917558 12.6324 0.0314169 10.1767 0.0309391C7.50497 0.00727414 4.93297 1.04519 3.02508 2.91694C1.11719 4.78869 0.0292562 7.34138 0 10.0149C0.0292562 12.6884 1.11719 15.2411 3.02508 17.1128C4.93297 18.9846 7.50497 20.0225 10.1767 19.9988C12.3419 20.0321 14.4606 19.3688 16.2208 18.1067C17.981 16.8446 19.2898 15.0502 19.9543 12.9879C19.9964 12.8458 20.0096 12.6968 19.9931 12.5496C19.9767 12.4024 19.931 12.26 19.8587 12.1307C19.7863 12.0015 19.6889 11.888 19.572 11.7971C19.4552 11.7061 19.3213 11.6395 19.1783 11.6012Z" fill="#474A57"/>
</g>
</svg>
